<?xml version="1.0" encoding="UTF-8"?>
<svg id="Blanco" xmlns="http://www.w3.org/2000/svg" viewBox="0 0 464.92 508.8">
  <defs>
    <style>
      .cls-1 {
        fill: #fff;
        stroke-width: 0px;
      }
    </style>
  </defs>
  <polygon class="cls-1" points="378.95 489.26 315.45 266.4 299.83 211.6 251.43 41.73 245.11 19.54 244.69 18.08 239.54 0 225.38 0 219.81 19.54 213.49 41.73 165.09 211.6 149.47 266.4 85.97 489.26 69.92 489.26 69.92 508.8 82.99 508.8 118.35 508.8 123.61 490.32 172.57 318.49 188.19 263.69 232.46 108.3 276.73 263.69 292.35 318.49 341.31 490.32 346.57 508.8 381.93 508.8 395 508.8 395 489.26 378.95 489.26"/>
  <polygon class="cls-1" points="447.76 489.26 426.31 19.54 447.76 19.54 447.76 0 425.42 0 394.07 0 393.67 0 389.34 9.77 385.01 19.54 299.83 211.6 276.73 263.69 232.46 363.53 188.19 263.69 165.09 211.6 79.91 19.54 75.58 9.77 71.25 0 70.85 0 39.5 0 17.16 0 17.16 19.54 38.61 19.54 17.16 489.26 0 489.26 0 508.8 16.27 508.8 52.8 508.8 53.69 489.26 71.86 91.37 149.47 266.4 172.57 318.49 206.84 395.77 213.72 411.28 215.51 415.3 249.41 415.3 251.2 411.28 258.08 395.77 292.35 318.49 315.45 266.4 393.06 91.37 411.23 489.26 412.12 508.8 448.65 508.8 464.92 508.8 464.92 489.26 447.76 489.26"/>
</svg>