<?xml version="1.0" encoding="UTF-8"?>
<svg id="Capa_2" data-name="Capa 2" xmlns="http://www.w3.org/2000/svg" viewBox="0 0 595.28 595.28">
  <defs>
    <style>
      .cls-1 {
        fill: #fff;
      }

      .cls-1, .cls-2 {
        stroke-width: 0px;
      }

      .cls-2 {
        fill: #1d1d1b;
      }
    </style>
  </defs>
  <rect class="cls-1" x="0" width="595.28" height="595.28" rx="83.28" ry="83.28"/>
  <g>
    <polygon class="cls-2" points="437.12 532.5 373.62 309.64 358.01 254.84 309.61 84.97 303.29 62.78 302.87 61.31 297.72 43.24 283.56 43.24 277.99 62.78 271.67 84.97 223.26 254.84 207.65 309.64 144.15 532.5 128.1 532.5 128.1 552.04 141.16 552.04 176.52 552.04 181.79 533.56 230.75 361.73 246.36 306.93 290.64 151.54 334.91 306.93 350.53 361.73 399.48 533.56 404.75 552.04 440.11 552.04 453.17 552.04 453.17 532.5 437.12 532.5"/>
    <polygon class="cls-2" points="505.93 532.5 484.49 62.78 505.93 62.78 505.93 43.24 483.6 43.24 452.24 43.24 451.85 43.24 447.52 53.01 443.18 62.78 358.01 254.84 334.91 306.93 290.64 406.77 246.36 306.93 223.26 254.84 138.09 62.78 133.76 53.01 129.43 43.24 129.03 43.24 97.68 43.24 75.34 43.24 75.34 62.78 96.79 62.78 75.34 532.5 58.18 532.5 58.18 552.04 74.45 552.04 110.98 552.04 111.87 532.5 130.03 134.61 207.65 309.64 230.75 361.73 265.02 439 271.9 454.52 273.68 458.54 307.59 458.54 309.38 454.52 316.26 439 350.53 361.73 373.62 309.64 451.24 134.61 469.41 532.5 470.3 552.04 506.82 552.04 523.1 552.04 523.1 532.5 505.93 532.5"/>
  </g>
</svg>